<?xml version="1.0" encoding="utf-8"?>
<!-- Generator: Adobe Illustrator 27.3.1, SVG Export Plug-In . SVG Version: 6.00 Build 0)  -->
<svg version="1.1" id="Layer_1" xmlns="http://www.w3.org/2000/svg" xmlns:xlink="http://www.w3.org/1999/xlink" x="0px" y="0px"
	 viewBox="0 0 24 24" style="enable-background:new 0 0 24 24;" xml:space="preserve">
<style type="text/css">
	.st0{fill-rule:evenodd;clip-rule:evenodd;fill:#808080;}
</style>
<path class="st0" d="M6.4,6.8C7.5,3.4,10.7,1,14.5,1C19.2,1,23,4.8,23,9.5c0,3.8-2.5,7-5.8,8.1c0.4-0.8,0.7-1.6,0.8-2.6
	c1.8-1.1,3.1-3.2,3.1-5.5C21,5.9,18.1,3,14.5,3C12.2,3,10.1,4.2,9,6.1C8.1,6.2,7.2,6.4,6.4,6.8z"/>
<path class="st0" d="M9.5,23c4.7,0,8.5-3.8,8.5-8.5C18,9.8,14.2,6,9.5,6C4.8,6,1,9.8,1,14.5C1,19.2,4.8,23,9.5,23z M9.5,21
	c3.6,0,6.5-2.9,6.5-6.5S13.1,8,9.5,8C5.9,8,3,10.9,3,14.5S5.9,21,9.5,21z"/>
<path class="st0" d="M8.8,10.5c-0.4,0-0.9,0.2-1.3,0.4c-0.3,0.2-0.6,0.4-0.9,0.8c-0.2,0.4-0.3,0.8-0.3,1.2c0,0.5,0.1,0.9,0.3,1.2
	c0.2,0.4,0.5,0.6,0.9,0.8c0.4,0.2,0.9,0.3,1.3,0.4V17c-0.5-0.2-0.9-0.5-1.2-0.7l-1.1,1c0.5,0.6,1.4,1.1,2.3,1.3v1h1.5v-1
	c0.4,0,0.9-0.2,1.3-0.4c0.3-0.2,0.6-0.4,0.9-0.8c0.2-0.4,0.3-0.8,0.3-1.2c0-0.5-0.1-0.9-0.3-1.2c-0.2-0.4-0.5-0.6-0.9-0.8
	c-0.4-0.2-0.9-0.3-1.3-0.4V12c0.5,0.2,0.9,0.5,1.2,0.7l1.1-1c-0.5-0.6-1.4-1.1-2.3-1.3v-1H8.8V10.5z M10.2,15.3V17
	c0.3,0,0.5-0.1,0.6-0.2c0.1-0.1,0.2-0.2,0.3-0.2c0.1-0.1,0.1-0.2,0.1-0.5c0-0.2-0.1-0.4-0.1-0.5c-0.1-0.1-0.1-0.2-0.3-0.2
	C10.7,15.4,10.5,15.3,10.2,15.3z M8.8,13.7V12c-0.3,0-0.5,0.1-0.6,0.2c-0.1,0.1-0.2,0.2-0.3,0.2c-0.1,0.1-0.1,0.2-0.1,0.5
	c0,0.2,0.1,0.4,0.1,0.5c0.1,0.1,0.1,0.2,0.3,0.2C8.3,13.6,8.5,13.7,8.8,13.7z"/>
</svg>
